<svg width="150" height="175" viewBox="0 0 150 175" xmlns="http://www.w3.org/2000/svg" xmlns:xlink="http://www.w3.org/1999/xlink"><defs><path id="a" d="M0 0h200v200H0z"/><filter x="-1.5%" y="-2.7%" width="103.1%" height="105.3%" filterUnits="objectBoundingBox" id="c"><feGaussianBlur stdDeviation=".873" in="SourceGraphic"/></filter><linearGradient x1="55.022%" y1="28.68%" x2="26.678%" y2="148.86%" id="d"><stop stop-color="#0041BF" stop-opacity=".1" offset="0%"/><stop stop-color="#00CFFF" stop-opacity=".9" offset="100%"/></linearGradient><linearGradient x1="79.663%" y1="-75.35%" x2="15.006%" y2="197.8%" id="e"><stop stop-color="#0041BF" offset="0%"/><stop stop-color="#00CFFF" stop-opacity=".9" offset="100%"/></linearGradient><linearGradient x1="25.061%" y1="34.435%" x2="92.652%" y2="50%" id="f"><stop stop-color="#FFF" offset="0%"/><stop stop-color="#E2F0FF" stop-opacity=".9" offset="47.288%"/><stop stop-color="#338BE6" stop-opacity=".767" offset="100%"/></linearGradient><linearGradient x1="6.126%" y1="-33.351%" x2="46.049%" y2="53.086%" id="g"><stop stop-color="#0F83DB" offset="0%"/><stop stop-color="#0031C1" offset="100%"/></linearGradient><linearGradient x1="27.83%" y1="108.461%" x2="55.26%" y2="36.784%" id="h"><stop stop-color="#0041BF" stop-opacity=".1" offset="0%"/><stop stop-color="#00CFFF" stop-opacity=".9" offset="100%"/></linearGradient><filter x="-3.1%" y="-1.5%" width="106.3%" height="102.9%" filterUnits="objectBoundingBox" id="i"><feGaussianBlur stdDeviation=".4" in="SourceGraphic"/></filter><linearGradient x1="42.49%" y1="86.251%" x2="64.28%" y2="-18.938%" id="j"><stop stop-color="#0041BF" stop-opacity=".1" offset="0%"/><stop stop-color="#00CFFF" stop-opacity=".9" offset="100%"/></linearGradient><linearGradient x1="28.371%" y1="-13.52%" x2="55.389%" y2="84.972%" id="k"><stop stop-color="#42B8FF" offset="0%"/><stop stop-color="#226EE0" offset="100%"/></linearGradient><linearGradient x1="11.216%" y1="6.039%" x2="29.959%" y2="90.997%" id="l"><stop stop-color="#FFF" stop-opacity=".542" offset="0%"/><stop stop-color="#FFF" stop-opacity=".696" offset="100%"/></linearGradient><linearGradient x1="80.528%" y1="45.12%" x2="20.223%" y2="53.6%" id="m"><stop stop-color="#83AFF6" offset="0%"/><stop stop-color="#3B79C9" offset="100%"/></linearGradient><linearGradient x1="40.916%" y1="100%" x2="62.685%" y2="18.014%" id="n"><stop stop-color="#FFF" offset="0%"/><stop stop-color="#FFF" stop-opacity=".044" offset="100%"/></linearGradient><filter x="-3.3%" y="-5.7%" width="106.6%" height="111.4%" filterUnits="objectBoundingBox" id="o"><feGaussianBlur stdDeviation=".873" in="SourceGraphic"/></filter><linearGradient x1="0%" y1="50%" x2="168.874%" y2="67.543%" id="p"><stop stop-color="#EEF3FF" offset="0%"/><stop stop-color="#ACD5EB" offset="100%"/></linearGradient><filter x="-6.2%" y="-10.5%" width="112.3%" height="121%" filterUnits="objectBoundingBox" id="q"><feGaussianBlur stdDeviation="1.2" in="SourceGraphic"/></filter><linearGradient x1="77.717%" y1="75.197%" x2="50%" y2="0%" id="r"><stop stop-color="#FFF" offset="0%"/><stop stop-color="#FFF" stop-opacity=".044" offset="100%"/></linearGradient></defs><g transform="translate(0 -1)" fill="none" fill-rule="evenodd" opacity=".8"><mask id="b" fill="#fff"><use xlink:href="#a"/></mask><g fill-rule="nonzero" mask="url(#b)"><path d="M14.026 170.905l97.402 56.371c1.623.938 4.27.938 5.894 0l65.145-37.635c1.623-.938 1.623-2.47 0-3.408L84.98 129.889c-1.623-.938-4.27-.938-5.89 0l-65.065 37.598c-1.624.938-1.624 2.47 0 3.413v.005z" fill-opacity=".027" fill="#005496" filter="url(#c)" transform="translate(35.053 1)"/><path d="M139.694 197.446c-1.623.938-4.271.934-5.89 0L36.398 141.07c-1.623-.943-1.623-2.475 0-3.413l65.061-37.607c1.623-.934 4.276-.934 5.894 0l97.486 56.343c1.623.938 1.623 2.47 0 3.409l-65.145 37.64v.004z" fill="#FFF"/><path d="M139.694 197.446c-1.623.938-4.271.934-5.89 0L36.398 141.07c-1.623-.943-1.623-2.475 0-3.413l65.061-37.607c1.623-.934 4.276-.934 5.894 0l97.486 56.343c1.623.938 1.623 2.47 0 3.409l-65.145 37.64v.004z" fill="#FFF" opacity=".7"/><path d="M131.519 177.162c-1.517.873-3.988.873-5.505-.005l-91.429-52.912c-1.516-.873-1.512-2.308 0-3.18l32.47-18.7c1.512-.873 3.989-.873 5.5 0l91.509 52.89c1.516.872 1.516 2.302 0 3.18l-32.545 18.727z" fill="url(#d)" opacity=".582" transform="translate(35.053 1)"/><path d="M69.677 173.807a3.91 3.91 0 0 1-3.533 0l-29.837-17.339c-.974-.557-.97-1.48 0-2.043l20.835-11.994a3.91 3.91 0 0 1 3.534 0l29.883 17.32c.974.558.974 1.477 0 2.044l-20.882 12.012z" fill="url(#e)" opacity=".253" transform="translate(35.053 1)"/><path d="M.134 138.408v3.812c-.018.631.38 1.268 1.206 1.746l97.407 56.371c1.623.943 4.271.943 5.89.005l65.149-37.64c.788-.455 1.187-1.054 1.206-1.653h.004v-3.896c-.023.604-.417 1.198-1.21 1.653l-65.145 37.64c-1.623.938-4.27.934-5.89 0L1.342 140.07c-.794-.464-1.193-1.068-1.207-1.672v.01z" fill="url(#f)" transform="translate(35.053 1)"/><path d="M85.252.678c-1.627-.938-3.185.01-3.459 2.103l-11.89 91.17c-.278 2.09.835 4.579 2.467 5.517l97.982 56.418c1.627.938 3.186-.01 3.46-2.104l11.894-91.216c.278-2.09-.835-4.574-2.467-5.516L85.252.678z" fill="url(#g)" transform="translate(35.053 1)"/><path d="M118.919 1.32c.63-.393 1.435-.4 2.257.074l97.987 56.371c1.632.943 2.745 3.427 2.467 5.517l-11.895 91.216c-.193 1.479-1.027 2.385-2.073 2.46.617-.385 1.067-1.14 1.202-2.176l11.895-91.216c.278-2.09-.835-4.574-2.467-5.516L120.305 1.678c-.478-.276-.95-.389-1.386-.357z" fill-opacity=".413" fill="#BBBCCB"/><path d="M116.846 3.781l-11.89 91.17c-.279 2.09.834 4.579 2.467 5.517l97.982 56.418c1.627.938 3.185-.01 3.459-2.104l11.895-91.216c.278-2.09-.835-4.574-2.467-5.516L120.305 1.678c-1.628-.938-3.186.01-3.46 2.103zm3.343 2.554l95.821 55.132c.575.325 1.14 1.588 1.043 2.322l-11.533 88.44-95.816-55.174c-.575-.33-1.136-1.593-1.043-2.331L120.194 6.34l-.005-.005z" fill="#191C42"/><g opacity=".7"><path d="M125.694 13.835c-1.356-.78-2.649.005-2.872 1.754l-9.877 75.838c-.228 1.74.696 3.801 2.047 4.586l85.04 49.05c1.357.78 2.65-.005 2.878-1.75l9.876-75.872c.229-1.744-.695-3.811-2.046-4.59l-85.046-49.016z" fill="#003A8D" opacity=".664"/><g opacity=".3"><path d="M4.983.117C4.455-.185 3.95.117 3.861.8L.012 30.285c-.083.678.278 1.486.802 1.788l29.299 16.884c.528.302 1.034 0 1.122-.683l3.849-29.5c.088-.678-.274-1.486-.802-1.787L4.983.117z" opacity=".7" transform="translate(124.202 22.55)" fill="url(#h)"/></g><path d="M127.39 60.295c-.241-.14-.468 0-.51.311l-.496 3.803c-.042.307.125.673.362.813l13.309 7.666c.24.14.473 0 .51-.306l.5-3.808c.038-.311-.125-.678-.366-.813l-13.309-7.666z" fill="#191C42" opacity=".4"/></g><path d="M22.495 16.445l-5.201 39.9-.917 7.06a2.97 2.97 0 0 0 .645 2.176c.105.123.222.228.339.323.066.05.127.1.194.14L44.922 81.77c.195.112.39.167.567.167h.017a.905.905 0 0 0 .578-.206c.066-.055.127-.11.183-.183.16-.235.265-.504.306-.785l.922-7.06 5.201-39.9L54.68 18.59a2.783 2.783 0 0 0-.25-1.531 2.8 2.8 0 0 0-.65-.908 1.778 1.778 0 0 0-.278-.206L26.14.173A1.23 1.23 0 0 0 25.568 0a1.06 1.06 0 0 0-.539.161c-.278.19-.483.54-.545 1.02l-1.989 15.264z" fill-opacity=".372" fill="#043052" filter="url(#i)" transform="translate(116.58 26.244)"/><path d="M14.127 18.449l-5.201 39.9-.917 7.059c-.081.782.15 1.565.644 2.177.106.122.223.228.34.323.066.05.127.1.194.139l27.367 15.727c.194.111.389.167.567.167h.016a.908.908 0 0 0 .578-.206c.067-.056.128-.111.184-.184.16-.235.264-.503.305-.785l.923-7.059 5.2-39.9 1.985-15.215a2.783 2.783 0 0 0-.25-1.53 2.8 2.8 0 0 0-.65-.908 1.778 1.778 0 0 0-.278-.206L17.772 2.176a1.23 1.23 0 0 0-.572-.172c-.191.003-.378.06-.54.161-.277.19-.483.54-.544 1.019l-1.99 15.265z" fill="url(#j)" opacity=".582" transform="translate(116.58 26.244)"/><path d="M126.874 29.625c-.823-.473-1.6 0-1.74 1.058l-8.512 65.314c-.14 1.058.422 2.3 1.239 2.772l28.728 16.513c.817.467 1.6-.006 1.734-1.058l8.507-65.27c.14-1.057-.416-2.299-1.233-2.772l-28.729-16.557h.006z" fill="#FFF"/><path d="M143.016 81.289l.127-.97c.011-.095.067-.151.15-.107l3.152 1.828c.089.039.117.185.105.28l-.127.97c-.012.095-.067.145-.15.106l-3.152-1.827c-.039-.045-.117-.185-.105-.28zM141.12 93.92l.123-.97c.01-.095.066-.145.15-.106l3.157 1.827c.083.045.11.185.1.28l-.128.97c-.011.095-.061.151-.15.106L141.22 94.2a.507.507 0 0 1-.105-.28h.005zm-7.225-18.052l.122-.97c.017-.095.067-.145.156-.1l3.151 1.821c.09.045.111.185.1.28l-.122.975c-.011.096-.067.146-.156.101l-3.151-1.821c-.039-.045-.111-.185-.1-.28v-.006zm-1.706 13.17l.127-.969c.011-.095.062-.146.15-.106l3.152 1.827c.089.044.111.185.105.28l-.127.97c-.012.095-.067.145-.156.106l-3.151-1.827c-.04-.045-.112-.185-.1-.28zm-7.11-18.354l.129-.97c.01-.095.066-.146.15-.1l3.151 1.82c.09.046.117.186.106.281l-.128.97c-.011.1-.067.15-.15.112l-3.152-1.833c-.044-.045-.116-.18-.105-.28zm-1.705 13.17l.127-.97c.011-.094.067-.15.15-.106l3.152 1.827c.089.04.117.185.105.28l-.127.97c-.012.096-.062.146-.15.107l-3.152-1.827a.507.507 0 0 1-.105-.28z" fill="#F2F8FF"/><path d="M8.56 1.556L6.471 17.578l31.702 18.227 2.083-15.977c.134-1.058-.422-2.3-1.239-2.773L10.294.498c-.817-.478-1.6 0-1.734 1.058z" fill="url(#k)" transform="translate(116.58 29.127)"/><path d="M11.861 5.256c-.208-.123-.406 0-.438.268l-1.289 9.895c-.037.268.107.578.31.696l7.245 4.163c.204.117.401 0 .439-.268l1.283-9.884c.038-.268-.107-.579-.31-.696l-7.24-4.179v.005zm10.567 8.28c-.128-.072-.25 0-.273.167l-.2 1.565c-.022.167.061.362.19.434l9.307 5.2c.128.072.244 0 .266-.167l.206-1.56c.022-.166-.067-.355-.194-.428l-9.302-5.21z" fill="url(#l)" opacity=".752" transform="translate(116.58 29.127)"/><path d="M8.822 23.992c-.184-.111-.362 0-.39.24l-.3 2.282c-.033.24.095.518.278.629l13.531 7.727c.19.106.367 0 .395-.245l.294-2.271c.034-.234-.094-.518-.278-.63l-13.53-7.738v.006z" fill="url(#m)" opacity=".4" transform="translate(116.58 29.127)"/><path d="M21.654 17.509c-.09-.056-.178 0-.19.111l-.216 1.643c-.011.111.045.25.133.3l6.496 3.63c.09.056.245-.546.256-.657l.144-1.091c.012-.111-.044-.245-.133-.3l-6.485-3.63-.005-.006z" fill="url(#l)" opacity=".752" transform="translate(116.58 29.127)"/><path d="M1.003 59.466L.042 66.87c-.139 1.058.422 2.3 1.239 2.773L30.01 86.155c.816.467 1.6-.006 1.739-1.058l.961-7.41-31.7-18.221h-.006z" fill="url(#k)" transform="translate(116.58 29.127)"/><path d="M142.683 86.75c-.195-.112-.378 0-.406.245l-.311 2.35c-.028.244.1.54.295.645l3.25 1.987c.195.112.378 0 .411-.25l.306-2.338c.028-.245-.1-.535-.294-.646l-3.251-1.993z" fill="#277DDA"/><path d="M135.77 68.513c-.21-.117-.405 0-.444.267l-.334 2.56c-.033.262.112.58.317.697l1.873 1.046c.205.117.406 0 .444-.267l.328-2.544c.034-.267-.11-.585-.316-.702l-1.868-1.057z" fill="#A65EE6"/><path d="M133.253 83.426c-.15 1.153.456 2.55 1.361 3.062.906.523 1.762.045 1.917-1.158.156-1.202-.455-2.55-1.36-3.067-.912-.518-1.762-.04-1.918 1.169v-.006z" fill="#47C860"/><path d="M144.328 75.131c-.145 1.153.46 2.544 1.367 3.062.905.518 1.761.04 1.917-1.163.155-1.203-.456-2.55-1.367-3.062-.906-.524-1.756-.04-1.912 1.163h-.005z" fill="#FDB63D"/><path d="M126.174 65.333c-.15 1.152.46 2.544 1.367 3.062.905.518 1.756.039 1.911-1.164.161-1.202-.456-2.55-1.361-3.062-.906-.523-1.756-.039-1.917 1.164z" fill="#459FFF"/><path fill="#CA3E75" d="M123.934 80.142l3.368 1.943-1.14-5.133z"/><path d="M9.544 67.867c-.156-.095-.306 0-.333.2l-.256 1.932c-.022.206.083.445.239.534l11.486 6.425c.155.089.31 0 .333-.206l.256-1.926c.022-.2-.084-.44-.24-.53l-11.485-6.43z" fill="url(#n)" transform="translate(116.58 29.127)"/><path d="M79.722 201.637l-20.43 11.834c-1.677.974-3.798.974-5.511 0L2.824 183.875a1.826 1.826 0 0 1 0-3.179l20.385-11.835a5.654 5.654 0 0 1 5.557 0l50.952 29.597a1.826 1.826 0 0 1 0 3.179h.004z" fill-opacity=".027" fill="#005496" filter="url(#o)" transform="translate(-1 1)"/><path d="M.074 14.439v4.087-.946a1.82 1.82 0 0 0 .927 1.599l50.97 29.768c1.677.978 3.799.978 5.518 0l20.44-11.904a1.83 1.83 0 0 0 .926-1.598v-3.188l-3.706.885L26.954 5.03a5.641 5.641 0 0 0-5.56 0L3.072 15.683.074 14.44z" fill="url(#p)" transform="translate(-1 146.334)"/><path d="M76.929 180.236l-20.436 11.903c-1.677.979-3.799.979-5.513 0L-.004 162.371a1.838 1.838 0 0 1-.927-1.598c0-.662.354-1.273.927-1.599l20.398-11.908a5.63 5.63 0 0 1 5.56 0l50.975 29.768c.573.326.927.936.927 1.599 0 .662-.354 1.272-.927 1.598v.005z" fill="#FFF"/><path fill="#0B3A81" d="M47.658 188.984L3.401 163.173l23.836-13.86 44.304 25.815z"/><path d="M46.742 39.579L10.386 18.375a.8.8 0 0 1 0-1.382L29.775 5.719a.8.8 0 0 1 .805 0l37.4 21.793a.8.8 0 0 1-.002 1.383l-18.42 10.687a2.8 2.8 0 0 1-2.815-.003z" fill-opacity=".859" fill="#051329" opacity=".474" filter="url(#q)" transform="translate(-1 146.334)"/><path d="M15.303 153.162a.34.34 0 0 1 0 .62L10.84 156.4a.644.644 0 0 1-.704 0 .34.34 0 0 1 0-.62l4.503-2.62c.218-.134.482-.134.663 0z" fill="#83AFF6"/><path d="M11.212 170.36c0 .312-.352.536-.616.359l-3.002-1.734a1.223 1.223 0 0 1-.533-.979c0-.312.352-.531.62-.354l3.003 1.734c.367.177.58.572.528.978v-.004zm37.618 12.826a2.441 2.441 0 0 1-2.224 0L5.151 158.957c-.611-.36-.611-.943 0-1.297l21.302-12.409a2.441 2.441 0 0 1 2.223 0l41.497 24.229c.611.36.611.943 0 1.298l-21.349 12.408h.005z" fill="#FFF"/><path d="M33.304 5.726l-9.22-5.33a2.464 2.464 0 0 0-2.224 0L.556 12.65c-.611.35-.611.927 0 1.282l8.985 5.196L33.304 5.726z" fill="url(#k)" transform="translate(4.595 144.852)"/><path d="M10.053 16.225a.691.691 0 0 1-.647 0l-5-2.999c-.176-.107-.176-.278 0-.381l5.647-3.222a.723.723 0 0 1 .65 0l5.01 3.003c.176.103.176.278 0 .381l-5.66 3.218zm4.64-7.075a.56.56 0 0 1-.503 0l-.841-.516c-.137-.08-.137-.215 0-.295l6.86-4.036a.56.56 0 0 1 .503 0l.855.515c.137.08.137.215 0 .295l-6.874 4.036zm2.243 1.567a.55.55 0 0 1-.498 0l-.846-.516c-.137-.08-.137-.215 0-.295l8.863-5.244a.56.56 0 0 1 .503 0l.85.515c.137.08.137.215 0 .295l-8.872 5.245z" fill="url(#l)" opacity=".752" transform="translate(4.595 144.852)"/><path d="M65.73 24.74l-5.775-3.312-23.65 13.523 5.766 3.312c.605.35 1.614.35 2.228 0L65.73 26.02c.614-.355.614-.926 0-1.28z" fill="url(#k)" transform="translate(4.595 144.852)"/><g opacity=".9"><path d="M42.28 161.551c-.112.078-.098.212.032.294l1.237.782c.13.083.325.092.441.009l1.975-1.292c.112-.078.098-.21-.028-.294l-1.236-.781a.426.426 0 0 0-.437-.005l-1.984 1.287z" fill="#277DDA"/><path d="M30.974 159.85c-.12.083-.107.23.037.318l1.348.855c.14.092.353.092.474.009l1.082-.772c.121-.083.107-.225-.032-.313l-1.338-.85a.48.48 0 0 0-.484-.01l-1.087.764z" fill="#A65EE6"/><path d="M38.45 164.985c.61.386 1.553.413 2.083.046.534-.368.488-.97-.144-1.375-.637-.4-1.552-.413-2.087-.046-.53.373-.483.975.149 1.38v-.005z" fill="#47C860"/><path d="M36.727 157.594c.604.386 1.552.414 2.082.046.534-.372.488-.975-.144-1.379-.637-.395-1.552-.41-2.087-.037-.53.368-.483.965.149 1.37z" fill="#FDB63D"/></g><path d="M39.57 159.7l-.501-.322c-.051-.032-.065-.073-.019-.11l1.854-1.283c.047-.036.13-.013.186.019l.502.322c.051.027.065.073.019.11l-1.854 1.278a.268.268 0 0 1-.186-.014zm6.553 4.339l-.511-.322c-.047-.032-.065-.074-.019-.11l1.854-1.278c.047-.041.135-.018.186.014l.507.321c.046.033.065.074.018.11l-1.858 1.283c-.033.01-.13.014-.182-.018h.005zm-12.096-1.333l-.511-.322c-.047-.032-.06-.073-.014-.11l1.854-1.283c.046-.036.135-.013.186.019l.506.322c.047.027.065.073.014.11l-1.85 1.278c-.036.013-.139.018-.185-.014zm6.97 4.375l-.492-.34c-.051-.032-.065-.078-.014-.115l1.9-1.208c.047-.033.135-.01.186.023l.493.34c.046.036.06.078.014.115l-1.905 1.208a.291.291 0 0 1-.182-.023zm-12.212-1.03l-.511-.32c-.046-.033-.06-.074-.014-.111l1.854-1.283c.047-.036.135-.013.186.019l.507.322c.046.032.065.073.018.11l-1.859 1.282a.305.305 0 0 1-.185-.018h.004zm7.208 4.303l-.512-.322c-.046-.032-.065-.078-.018-.115l1.854-1.277c.046-.037.135-.019.186.013l.506.322c.047.032.065.078.019.115l-1.859 1.278c-.032.009-.13.018-.181-.014h.005z" fill="#EFF1FF"/><path d="M25.95 163.969c.605.386 1.553.414 2.082.046.53-.368.488-.974-.144-1.374-.636-.4-1.552-.414-2.086-.046-.53.372-.483.974.149 1.379v-.005z" fill="#459FFF" opacity=".9"/><path fill="#CA3E75" opacity=".9" d="M33.99 168.777l1.984-1.365-3.183-.708z"/><path d="M48.806 32.226a.588.588 0 0 1-.505 0l-.858-.492c-.139-.08-.139-.206 0-.282l6.954-3.858c.139-.08.37-.08.51 0l.867.493c.139.076.139.201 0 .282l-6.968 3.857z" fill="url(#r)" transform="translate(4.595 144.852)"/></g></g></svg>